PathFileType	4	(X/Y/Z)	C:/Users/beibeiliu/ov580/test_trc\sequence.8_training_dense_left.trc
DataRate	CameraRate	NumFrames	NumMarkers	Units	OrigDataRate	OrigDataStartFrame	OrigNumFrames
120	120	22	19	mm	120	30	87
Frame#	Time	ThumbCMC			ThumbMCP			ThumbIP			ThumbTip			IndexMCP			IndexPIP			IndexTip			MiddleMCP			MiddlePIP			MiddleTip			RingMCP			RingPIP			RingTip			PinkyMCP			PinkyPIP			PinkyTip			BackHand1			BackHand2			BackHand3	
		X0	Y0	Z0	X1	Y1	Z1	X2	Y2	Z2	X3	Y3	Z3	X4	Y4	Z4	X5	Y5	Z5	X6	Y6	Z6	X7	Y7	Z7	X8	Y8	Z8	X9	Y9	Z9	X10	Y10	Z10	X11	Y11	Z11	X12	Y12	Z12	X13	Y13	Z13	X14	Y14	Z14	X15	Y15	Z15	X16	Y16	Z16	X17	Y17	Z17	X18	Y18	Z18	
29	0.241667	-235.081	44.7262	116.537	-209.881	49.6365	95.3633	-193.456	60.0546	74.3867	-182.759	54.6377	51.5361	-244.14	37.5799	44.2952	-218.674	43.5322	26.81	-186.302	43.5698	30.8041	-253.927	12.5879	35.3939	-239.063	15.1087	9.09536	-212.707	18.8763	-11.44	-250.647	-4.31352	39.6409	-240.488	-4.90717	13.1696	-222.926	-4.81308	-7.93669	-243.162	-22.4413	53.4059	-237.286	-29.521	27.3351	-227.537	-30.378	3.61803	-261.95	-6.63075	93.2316	-263.282	-9.6553	120.463	-268.514	21.1829	107.04	
30	0.25	-235.572	43.6847	112.325	-208.053	53.0839	93.5114	-194.601	54.3291	74.2826	-184.369	51.5658	49.1175	-242.419	45.5312	41.9402	-219.698	42.9906	28.8284	-185.194	38.8789	32.4065	-256.841	16.1999	38.7142	-243.138	16.7696	9.16721	-220.325	17.501	-9.67331	-256.554	-2.20196	38.6379	-246.099	-5.33603	11.959	-230.817	1.38627	-9.83093	-248.987	-22.4496	52.0154	-244.608	-28.4624	30.646	-238.958	-31.5676	1.02224	-266.739	-8.27945	90.1821	-266.286	-9.04371	121.935	-269.982	22.6599	106.503	
31	0.258333	-233.528	47.4643	115.135	-204.417	54.2678	95.115	-193.331	54.8067	73.9906	-181.666	54.4308	49.7682	-241.587	46.2038	42.0203	-217.832	48.2937	28.9897	-187.014	41.1418	30.8791	-257.811	24.6802	34.448	-243.311	24.2566	9.07349	-220.704	24.6895	-12.3343	-258.636	0.533821	41.2214	-251.851	0.742483	15.9948	-235.655	2.44365	-10.0646	-253.548	-19.9729	55.0983	-251.292	-26.7064	28.432	-247.792	-29.2083	6.36672	-269.749	-0.859025	91.7337	-268.246	-1.26893	123.092	-267.984	32.998	106.47	
32	0.266667	-228.653	47.8879	114.42	-201.855	50.4839	96.374	-186.227	53.7438	73.6107	-180.556	46.912	49.5932	-240.153	51.1459	47.0774	-213.829	46.4259	29.0021	-185.667	35.1203	29.5088	-256.319	25.9761	38.345	-244.098	25.1618	10.2935	-219.262	24.1616	-9.80459	-260.232	7.40817	41.5493	-253.846	2.63887	15.9242	-237.292	2.69944	-8.17303	-256.675	-17.9195	53.3087	-254.81	-19.1856	28.5081	-250.21	-24.7371	2.21503	-270.254	2.68743	90.8973	-268.52	2.58969	123.137	-265.068	30.4479	107.78	
33	0.275	-216.876	47.2783	117.367	-190.677	43.967	95.8271	-176.369	43.5633	69.6996	-172.599	36.8988	50.6135	-229.422	47.4494	46.6939	-205.666	40.2408	28.483	-178.974	25.0416	30.3327	-248.549	32.4743	36.5907	-237.474	27.868	11.246	-215.128	21.6898	-7.96318	-256.307	13.3241	39.5528	-250.471	7.99486	15.7051	-233.432	4.42659	-10.0526	-259.868	-12.1661	49.4328	-255.799	-13.8281	27.2289	-255.339	-21.6011	3.41143	-266.459	12.6982	91.3011	-267.515	8.97884	119.018	-258.698	37.2147	107.295	
34	0.283333	-199.207	36.2539	119.673	-173.026	25.0396	100.341	-162.529	20.2367	76.3482	-161.796	12.2132	51.4828	-206.846	44.6789	49.8698	-185.594	25.5395	30.284	-171.331	4.38855	31.3238	-230.907	36.0627	37.2539	-220.282	25.3464	11.0023	-198.641	9.50832	-7.54555	-247.562	18.5486	42.5807	-239.834	15.6713	14.5316	-226.439	4.01562	-9.43569	-255.989	-3.13366	55.9756	-255.587	-5.88799	27.5993	-254.275	-10.1218	3.29075	-255.326	22.81	92.9137	-258.991	18.6489	124.259	-239.849	41.8886	108.709	
35	0.291667	-180.204	19.7503	125.488	-160.425	1.80715	102.474	-152.712	-7.6551	81.5527	-153.295	-18.1726	57.8941	-180.91	29.2886	51.4197	-163.548	5.15186	34.645	-160.03	-21.0086	37.8046	-210.476	24.9988	38.4323	-197.613	13.1978	14.3461	-182.854	-8.19459	-2.77928	-230.189	15.5681	43.4671	-223.563	8.70024	15.2177	-213.069	-4.75918	-4.63902	-246.947	1.00659	52.3111	-246.668	-4.51992	28.5459	-249.232	-11.6605	7.79886	-240.24	24.2488	91.1416	-245.77	23.8717	122.335	-216.328	36.8051	111.763	
36	0.3	-169.377	13.0018	127.94	-152.647	-9.11818	108.453	-143.68	-21.6361	89.0227	-139.294	-34.7094	64.8052	-169.675	13.9244	52.8457	-157.584	-7.62335	38.1084	-155.041	-38.474	43.8199	-194.119	16.3428	42.8159	-183.374	3.07868	19.1174	-175.588	-24.4114	2.98962	-216.41	8.32659	46.681	-211.475	-0.450539	21.3827	-198.717	-19.2735	-3.74014	-233.265	-3.37282	53.4031	-233.809	-10.0306	32.0173	-239.134	-19.0221	7.43417	-229.416	19.8684	94.1679	-233.219	24.9396	120.775	-202.925	32.7473	111.133	
37	0.308333	-164.91	10.6004	127.826	-147.063	-12.8276	111.65	-137.425	-26.7907	95.6763	-132.574	-40.5687	72.6174	-159.075	6.70711	52.7062	-147.641	-17.2556	42.1765	-144.885	-45.6183	51.084	-186.487	10.9255	45.7138	-175.807	-5.16864	21.0888	-167.445	-32.3398	7.8356	-208.675	4.83925	47.0176	-198.964	-6.20204	19.5342	-192.782	-27.8561	-1.89025	-228.051	-5.29968	59.5516	-228.945	-14.4425	35.2367	-227.974	-19.235	12.6204	-217.524	21.7049	96.5402	-229.366	25.6683	121.057	-191.273	34.1079	110.206	
38	0.316667	-163.291	13.0878	130.687	-141.435	-12.5866	120.639	-129.625	-27.8958	101.508	-130.883	-41.3659	82.4014	-153.211	8.84292	60.0252	-137.425	-18.0501	48.8032	-140.624	-47.5549	57.4338	-174.312	11.0329	48.5821	-166.361	-8.93981	24.5168	-156.414	-39.5392	12.8305	-197.142	4.5336	47.3886	-191.86	-8.40992	23.1398	-182.585	-28.9332	5.10206	-218.788	-6.45737	57.5777	-221.675	-16.5012	36.4349	-220.628	-27.4235	9.49495	-215.082	20.0196	95.6795	-219.986	28.7334	121.152	-187.071	36.8002	111.962	
39	0.325	-164.094	24.4183	133.127	-142.808	1.72774	127.258	-123.361	-15.6967	109.007	-119.235	-33.1967	88.0964	-146.808	9.80974	61.2015	-131.522	-10.6537	55.7109	-126.063	-40.0234	72.7181	-171.864	6.5601	47.8394	-156.256	-13.3667	30.6647	-144.062	-38.0973	24.8595	-189.775	0.22405	51.7243	-181.152	-17.0185	28.8039	-167.73	-39.2648	13.0113	-210.925	-13.5641	59.5907	-207.612	-26.2229	40.1083	-201.226	-40.9286	18.3258	-211.454	21.7886	94.7999	-223.367	27.3369	119.413	-189.416	41.3815	113.018	
40	0.333333	-166.663	44.8579	132.365	-140.631	27.4036	128.288	-118.157	15.7181	116.046	-106.984	-2.74233	100.376	-146.576	19.8173	63.168	-122.958	4.10476	64.9378	-112.83	-17.1299	83.9586	-166.607	7.20957	52.4699	-146.428	-8.11922	38.7793	-120.167	-26.0967	36.3671	-182.717	-7.36426	55.9851	-166.545	-20.5672	38.0866	-142.621	-37.5685	26.7263	-196.559	-19.7962	69.1684	-188.583	-36.8841	52.1519	-177.118	-47.7754	31.8968	-213.378	11.8909	91.2448	-227.468	23.1886	117.092	-201.981	43.4995	106.246	
41	0.341667	-182.759	56.1553	127.828	-153.42	47.7342	128.634	-123.078	42.8432	114.612	-110.873	25.6799	100.163	-154.136	34.3382	63.9332	-126.569	25.6141	63.421	-109.547	11.0445	85.6061	-166.899	11.1224	51.5422	-142.683	3.21291	38.6032	-114.683	-10.7736	35.8922	-177.742	-8.08014	58.53	-156.151	-14.1727	42.1023	-130.324	-22.8367	31.8797	-185.286	-26.9009	72.132	-169.55	-37.1214	57.5825	-154.802	-50.5116	39.0382	-212.852	6.49041	92.9179	-229.096	14.9262	116.24	-212.787	41.354	104.476	
42	0.35	-198.473	54.534	121.198	-168.187	63.7611	120.849	-142.579	59.7789	105.475	-125.663	50.1631	94.5932	-169.355	43.5207	57.8963	-136.351	42.6874	59.1667	-115.691	39.3525	83.6258	-172.396	15.0251	47.6943	-148.612	11.7628	33.6441	-116.659	13.7691	26.2073	-175.715	-6.02652	57.8909	-152.456	-11.4798	39.7107	-128.16	-8.62642	28.0627	-175.63	-25.6514	73.3596	-158.374	-30.9963	58.1864	-143.305	-38.6656	40.9991	-214.614	-1.33001	94.8599	-230.636	0.509459	118.203	-223.961	30.116	102.48	
43	0.358333	-218.027	49.9318	115.655	-190.41	62.627	108.437	-169.49	70.8816	94.8038	-145.874	64.7158	77.6707	-186.752	35.5703	49.1213	-161.778	49.3185	44.208	-137.488	53.5509	64.0738	-187.354	9.348	45.4749	-164.509	16.2529	23.0919	-138.088	20.2111	13.7907	-180.213	-7.22006	50.859	-162.673	-7.96805	34.8496	-136.895	-3.91376	19.1611	-173.937	-22.7942	68.0266	-157.114	-27.4895	55.7063	-143.198	-32.6539	39.2723	-215.495	-10.6586	91.4414	-229.597	-15.696	119.436	-235.152	17.4122	100.882	
44	0.366667	-233.498	35.937	112.545	-211.816	61.1457	99.1391	-192.201	70.949	76.6835	-174.17	64.3057	63.1603	-210.546	27.2812	43.2171	-186.709	41.6229	32.6586	-161.413	55.6447	51.072	-205.355	1.74081	40.9387	-186.484	5.13715	18.7966	-162.707	16.9306	-0.189257	-190.157	-15.9715	46.5174	-176.061	-14.3295	28.8247	-153.565	-6.6307	9.12539	-180.517	-26.0886	68.7193	-160.694	-28.9362	49.3089	-147.633	-30.4602	28.7948	-219.404	-21.1561	94.0763	-231.775	-21.4547	119.514	-244.687	3.01626	96.9673	
45	0.375	-246.935	25.0729	107.551	-229.832	48.7098	89.5875	-215.867	57.067	71.3652	-200.888	58.4911	53.8444	-230.302	10.8497	38.0209	-209.75	30.3486	25.165	-187.968	47.9479	38.3211	-220.289	-14.7423	35.2089	-202.305	-10.6973	10.582	-186.829	0.422588	-8.78061	-207.229	-26.4869	45.2176	-192.638	-25.8452	24.4119	-173.258	-16.9128	-0.820096	-186.662	-36.0279	61.6666	-171.125	-36.9481	46.5687	-160.798	-39.9133	26.8156	-222.837	-35.5308	96.1272	-235.825	-33.9483	123.44	-252.429	-13.24	101.428	
46	0.383333	-261.458	13.6656	104.135	-248.217	38.4883	86.9633	-236.98	45.9612	64.4833	-219.572	42.847	43.6446	-250.353	-6.08448	38.0076	-232.774	10.9028	20.3509	-209	32.1569	30.4707	-239.431	-30.1482	35.2848	-225.987	-25.5547	6.99029	-210.124	-15.8035	-12.7507	-217.972	-43.3127	47.3396	-211.075	-40.2371	21.0502	-194.863	-34.3785	-1.98673	-198.842	-46.4926	59.3231	-189.559	-46.0623	44.7398	-176.128	-48.5923	23.6002	-234.684	-44.0873	94.8579	-239.131	-42.874	126.239	-262.824	-25.214	103.565	
47	0.391667	-271.443	9.96783	107.231	-256.774	27.5166	85.1903	-251.983	40.5653	58.0321	-239.621	39.3528	37.9652	-267.654	-15.1227	37.4035	-255.284	1.19763	20.5131	-232.108	25.0523	23.078	-256.902	-40.5852	41.2832	-246.578	-39.3677	11.1245	-235.612	-27.1915	-14.8564	-236.642	-51.6381	44.2866	-231.685	-50.0962	21.1718	-219.526	-45.2523	-5.68768	-217.533	-52.4527	60.8477	-205.484	-55.2837	39.779	-196.487	-58.9522	16.1246	-244.45	-48.5734	100.493	-250.127	-47.0742	125.562	-274.581	-31.6407	108.085	
48	0.4	-275.238	14.7972	111.274	-260.12	30.7365	85.5101	-255.98	42.0507	57.1232	-244.37	32.9772	35.4632	-282.758	-12.5812	41.6753	-265.998	0.779293	20.2504	-242.118	20.6688	19.9491	-273.824	-38.6343	43.4457	-270.597	-35.5934	11.5221	-258.407	-26.3797	-15.9878	-258.619	-47.6566	49.0539	-250.745	-53.5252	19.9201	-246.192	-44.1878	-8.35458	-234.47	-56.9486	57.6562	-228.548	-59.5358	34.9013	-223.141	-64.7523	15.9947	-258.282	-48.0366	102.203	-258.786	-43.3248	126.351	-281.558	-27.2431	113.085	
49	0.408333	-273.096	31.8458	106.951	-255.15	41.3443	84.659	-247.981	48.3709	57.9191	-239.643	42.147	33.3883	-286.562	4.41532	39.9789	-268.099	16.6906	19.7164	-243.165	29.5909	18.5813	-286.81	-22.3127	41.6801	-280.548	-22.6065	12.9797	-265.668	-19.1545	-16.7669	-272.311	-38.3267	47.2328	-268.89	-40.1034	18.6612	-260.393	-39.0136	-6.95938	-253.461	-44.5326	61.6107	-249.056	-50.5285	36.682	-243.338	-62.0183	12.2834	-272.947	-35.6764	98.8669	-269.811	-28.233	127.421	-289.344	-8.33214	111.596	
50	0.416667	-261.22	46.0092	112.161	-241.712	54.5237	84.307	-232.403	58.2569	60.1021	-225.15	54.1682	34.8615	-281.976	28.7715	44.0792	-258.92	31.0935	19.5484	-233.077	40.0599	17.4336	-286.826	0.0538794	40.8772	-281.813	-1.45368	11.0874	-268.107	-1.17191	-14.448	-278.349	-17.7234	47.5788	-273.931	-23.9084	16.7439	-265.205	-21.0062	-10.7841	-261.612	-33.3621	55.6068	-257.842	-41.1886	36.0266	-258.358	-45.9533	12.6202	-277.938	-17.1569	99.2732	-275.345	-16.1766	125.511	-288.435	11.7437	110.295	
